<svg width="414" height="37" viewBox="0 0 414 37" fill="none" xmlns="http://www.w3.org/2000/svg">
<path d="M31.4062 37H3.60938C3.17188 37 2.76562 36.9219 2.39062 36.7656C2.01562 36.6094 1.6875 36.3984 1.40625 36.1328C1.14062 35.8516 0.929688 35.5234 0.773438 35.1484C0.617188 34.7734 0.539062 34.3672 0.539062 33.9297V3.39062H6.63281V30.9062H31.4062V37ZM61.6875 33.9297C61.6875 34.3672 61.6094 34.7734 61.4531 35.1484C61.2969 35.5234 61.0781 35.8516 60.7969 36.1328C60.5312 36.3984 60.2109 36.6094 59.8359 36.7656C59.4766 36.9219 59.0859 37 58.6641 37H44.8828C44.1328 37 43.3281 36.9141 42.4688 36.7422C41.625 36.5703 40.7891 36.2969 39.9609 35.9219C39.1328 35.5312 38.3281 35.0469 37.5469 34.4688C36.7812 33.875 36.1094 33.1641 35.5312 32.3359C34.9531 31.4922 34.4844 30.5234 34.125 29.4297C33.7812 28.3359 33.6094 27.1016 33.6094 25.7266V11.6641H39.7031V25.7266C39.7031 26.5234 39.8359 27.2422 40.1016 27.8828C40.3828 28.5078 40.7578 29.0469 41.2266 29.5C41.6953 29.9531 42.2422 30.3047 42.8672 30.5547C43.5078 30.7891 44.1953 30.9062 44.9297 30.9062H55.5938V11.6641H61.6875V33.9297ZM90.0234 37H83.9297V20.1953C83.9297 19.3984 83.7188 18.7969 83.2969 18.3906C82.875 17.9688 82.25 17.7578 81.4219 17.7578H73.5V37H67.4062V14.6875C67.4062 14.2656 67.4844 13.875 67.6406 13.5156C67.7969 13.1406 68.0156 12.8203 68.2969 12.5547C68.5781 12.2734 68.9062 12.0547 69.2812 11.8984C69.6562 11.7422 70.0547 11.6641 70.4766 11.6641H81.4688C82.3125 11.6641 83.2188 11.8125 84.1875 12.1094C85.1562 12.4062 86.0781 12.8828 86.9531 13.5391V11.6641H95.2031C95.7812 11.6641 96.3906 11.7344 97.0312 11.875C97.6719 12 98.3047 12.2031 98.9297 12.4844C99.5703 12.7656 100.18 13.1328 100.758 13.5859C101.336 14.0234 101.844 14.5625 102.281 15.2031C102.719 15.8281 103.07 16.5547 103.336 17.3828C103.602 18.2109 103.734 19.1484 103.734 20.1953V37H97.6406V20.1953C97.6406 19.3984 97.4375 18.7969 97.0312 18.3906C96.6406 17.9688 96.0312 17.7578 95.2031 17.7578H89.7188C89.9219 18.5078 90.0234 19.3203 90.0234 20.1953V37ZM115.547 6.46094H109.453V0.953125H115.547V6.46094ZM115.547 37H109.453V11.6641H115.547V37ZM149.484 37H143.391V22.9375C143.391 22.1406 143.25 21.4297 142.969 20.8047C142.703 20.1641 142.336 19.6172 141.867 19.1641C141.398 18.7109 140.844 18.3672 140.203 18.1328C139.578 17.8828 138.898 17.7578 138.164 17.7578H127.5V37H121.406V14.6875C121.406 14.2656 121.484 13.875 121.641 13.5156C121.797 13.1406 122.016 12.8203 122.297 12.5547C122.578 12.2734 122.906 12.0547 123.281 11.8984C123.656 11.7422 124.055 11.6641 124.477 11.6641H138.211C138.977 11.6641 139.781 11.75 140.625 11.9219C141.484 12.0938 142.328 12.375 143.156 12.7656C144 13.1406 144.797 13.625 145.547 14.2188C146.312 14.7969 146.984 15.5078 147.562 16.3516C148.156 17.1797 148.625 18.1406 148.969 19.2344C149.312 20.3281 149.484 21.5625 149.484 22.9375V37ZM182.391 28.4453C182.391 29.4922 182.258 30.4375 181.992 31.2812C181.727 32.1094 181.375 32.8438 180.938 33.4844C180.5 34.1094 179.992 34.6484 179.414 35.1016C178.836 35.5391 178.227 35.8984 177.586 36.1797C176.961 36.4609 176.32 36.6719 175.664 36.8125C175.023 36.9375 174.414 37 173.836 37H162.844C162 37 161.078 36.8516 160.078 36.5547C159.078 36.2578 158.148 35.7734 157.289 35.1016C156.445 34.4141 155.734 33.5312 155.156 32.4531C154.594 31.3594 154.312 30.0234 154.312 28.4453V20.1953C154.312 18.6328 154.594 17.3125 155.156 16.2344C155.734 15.1406 156.445 14.2578 157.289 13.5859C158.148 12.8984 159.078 12.4062 160.078 12.1094C161.078 11.8125 162 11.6641 162.844 11.6641H173.836C175.398 11.6641 176.727 11.9453 177.82 12.5078C178.914 13.0703 179.797 13.7812 180.469 14.6406C181.141 15.4844 181.625 16.4062 181.922 17.4062C182.234 18.4062 182.391 19.3359 182.391 20.1953V28.4453ZM176.297 20.2422C176.297 19.3984 176.086 18.7734 175.664 18.3672C175.242 17.9609 174.633 17.7578 173.836 17.7578H162.891C162.078 17.7578 161.461 17.9688 161.039 18.3906C160.617 18.7969 160.406 19.3984 160.406 20.1953V28.4453C160.406 29.2422 160.617 29.8516 161.039 30.2734C161.461 30.6953 162.078 30.9062 162.891 30.9062H173.836C174.664 30.9062 175.281 30.6953 175.688 30.2734C176.094 29.8516 176.297 29.2422 176.297 28.4453V20.2422ZM215.297 33.9297C215.297 34.3672 215.219 34.7734 215.062 35.1484C214.906 35.5234 214.688 35.8516 214.406 36.1328C214.141 36.3984 213.82 36.6094 213.445 36.7656C213.086 36.9219 212.695 37 212.273 37H198.492C197.742 37 196.938 36.9141 196.078 36.7422C195.234 36.5703 194.398 36.2969 193.57 35.9219C192.742 35.5312 191.938 35.0469 191.156 34.4688C190.391 33.875 189.719 33.1641 189.141 32.3359C188.562 31.4922 188.094 30.5234 187.734 29.4297C187.391 28.3359 187.219 27.1016 187.219 25.7266V11.6641H193.312V25.7266C193.312 26.5234 193.445 27.2422 193.711 27.8828C193.992 28.5078 194.367 29.0469 194.836 29.5C195.305 29.9531 195.852 30.3047 196.477 30.5547C197.117 30.7891 197.805 30.9062 198.539 30.9062H209.203V11.6641H215.297V33.9297ZM245.508 28.4453C245.508 29.4922 245.375 30.4375 245.109 31.2812C244.844 32.1094 244.492 32.8438 244.055 33.4844C243.617 34.1094 243.109 34.6484 242.531 35.1016C241.953 35.5391 241.344 35.8984 240.703 36.1797C240.078 36.4609 239.438 36.6719 238.781 36.8125C238.141 36.9375 237.531 37 236.953 37H220.453V30.9062H236.906C237.734 30.9062 238.359 30.6953 238.781 30.2734C239.203 29.8516 239.414 29.2422 239.414 28.4453C239.336 26.8203 238.516 26.0078 236.953 26.0078H227.508C226.164 26.0078 225.023 25.7734 224.086 25.3047C223.148 24.8359 222.383 24.25 221.789 23.5469C221.211 22.8438 220.789 22.0859 220.523 21.2734C220.273 20.4609 220.148 19.7031 220.148 19C220.148 17.6406 220.391 16.5 220.875 15.5781C221.359 14.6406 221.969 13.8828 222.703 13.3047C223.438 12.7266 224.234 12.3125 225.094 12.0625C225.953 11.7969 226.758 11.6641 227.508 11.6641H242.484V17.7578H227.555C227.242 17.7578 226.992 17.7969 226.805 17.875C226.633 17.9375 226.5 18.0312 226.406 18.1562C226.328 18.2656 226.281 18.3906 226.266 18.5312C226.25 18.6562 226.242 18.7812 226.242 18.9062C226.258 19.1562 226.305 19.3516 226.383 19.4922C226.461 19.6328 226.555 19.7344 226.664 19.7969C226.789 19.8594 226.922 19.8984 227.062 19.9141C227.219 19.9141 227.367 19.9141 227.508 19.9141H236.953C238.516 19.9141 239.844 20.1953 240.938 20.7578C242.031 21.3203 242.914 22.0312 243.586 22.8906C244.258 23.7344 244.742 24.6562 245.039 25.6562C245.352 26.6562 245.508 27.5859 245.508 28.4453ZM299.25 33.9297C299.25 34.3672 299.172 34.7734 299.016 35.1484C298.859 35.5234 298.641 35.8516 298.359 36.1328C298.094 36.3984 297.773 36.6094 297.398 36.7656C297.023 36.9219 296.617 37 296.18 37H274.195C273.633 37 273.023 36.9375 272.367 36.8125C271.727 36.6719 271.086 36.4609 270.445 36.1797C269.82 35.8984 269.219 35.5391 268.641 35.1016C268.062 34.6484 267.547 34.1094 267.094 33.4844C266.656 32.8438 266.305 32.1094 266.039 31.2812C265.773 30.4375 265.641 29.4922 265.641 28.4453V11.9453C265.641 11.3828 265.703 10.7812 265.828 10.1406C265.969 9.48438 266.18 8.84375 266.461 8.21875C266.742 7.57812 267.109 6.96875 267.562 6.39062C268.016 5.8125 268.555 5.30469 269.18 4.86719C269.82 4.41406 270.555 4.05469 271.383 3.78906C272.211 3.52344 273.148 3.39062 274.195 3.39062H298.969V9.48438H274.195C273.398 9.48438 272.789 9.69531 272.367 10.1172C271.945 10.5391 271.734 11.1641 271.734 11.9922V28.4453C271.734 29.2266 271.945 29.8359 272.367 30.2734C272.805 30.6953 273.414 30.9062 274.195 30.9062H293.156V23.2656H276.938V17.125H296.18C296.617 17.125 297.023 17.2109 297.398 17.3828C297.773 17.5391 298.094 17.7578 298.359 18.0391C298.641 18.3203 298.859 18.6484 299.016 19.0234C299.172 19.3828 299.25 19.7734 299.25 20.1953V33.9297ZM316.055 37H313.336C312.461 37 311.523 36.8516 310.523 36.5547C309.539 36.2578 308.617 35.7734 307.758 35.1016C306.898 34.4141 306.188 33.5312 305.625 32.4531C305.062 31.3594 304.781 30.0234 304.781 28.4453V0.953125H310.875V28.4453C310.875 29.1953 311.109 29.7969 311.578 30.25C312.047 30.6875 312.633 30.9062 313.336 30.9062H316.055V37ZM347.531 28.4453C347.531 29.4922 347.398 30.4375 347.133 31.2812C346.867 32.1094 346.516 32.8438 346.078 33.4844C345.641 34.1094 345.133 34.6484 344.555 35.1016C343.977 35.5391 343.367 35.8984 342.727 36.1797C342.102 36.4609 341.461 36.6719 340.805 36.8125C340.164 36.9375 339.555 37 338.977 37H327.984C327.141 37 326.219 36.8516 325.219 36.5547C324.219 36.2578 323.289 35.7734 322.43 35.1016C321.586 34.4141 320.875 33.5312 320.297 32.4531C319.734 31.3594 319.453 30.0234 319.453 28.4453V20.1953C319.453 18.6328 319.734 17.3125 320.297 16.2344C320.875 15.1406 321.586 14.2578 322.43 13.5859C323.289 12.8984 324.219 12.4062 325.219 12.1094C326.219 11.8125 327.141 11.6641 327.984 11.6641H338.977C340.539 11.6641 341.867 11.9453 342.961 12.5078C344.055 13.0703 344.938 13.7812 345.609 14.6406C346.281 15.4844 346.766 16.4062 347.062 17.4062C347.375 18.4062 347.531 19.3359 347.531 20.1953V28.4453ZM341.438 20.2422C341.438 19.3984 341.227 18.7734 340.805 18.3672C340.383 17.9609 339.773 17.7578 338.977 17.7578H328.031C327.219 17.7578 326.602 17.9688 326.18 18.3906C325.758 18.7969 325.547 19.3984 325.547 20.1953V28.4453C325.547 29.2422 325.758 29.8516 326.18 30.2734C326.602 30.6953 327.219 30.9062 328.031 30.9062H338.977C339.805 30.9062 340.422 30.6953 340.828 30.2734C341.234 29.8516 341.438 29.2422 341.438 28.4453V20.2422ZM380.672 28.4453C380.672 29.0234 380.602 29.6328 380.461 30.2734C380.336 30.9141 380.133 31.5547 379.852 32.1953C379.57 32.8203 379.203 33.4219 378.75 34C378.312 34.5781 377.773 35.0938 377.133 35.5469C376.508 35.9844 375.781 36.3359 374.953 36.6016C374.125 36.8672 373.188 37 372.141 37H361.148C360.57 37 359.961 36.9375 359.32 36.8125C358.68 36.6719 358.039 36.4609 357.398 36.1797C356.773 35.8984 356.172 35.5391 355.594 35.1016C355.016 34.6484 354.5 34.1094 354.047 33.4844C353.609 32.8438 353.258 32.1094 352.992 31.2812C352.727 30.4375 352.594 29.4922 352.594 28.4453V0.953125H358.688V28.4453C358.688 29.1953 358.922 29.7969 359.391 30.25C359.859 30.6875 360.445 30.9062 361.148 30.9062H372.141C372.906 30.9062 373.5 30.6797 373.922 30.2266C374.359 29.7734 374.578 29.1797 374.578 28.4453V20.1953C374.578 19.4297 374.352 18.8359 373.898 18.4141C373.445 17.9766 372.859 17.7578 372.141 17.7578H361.148V11.6641H372.141C372.719 11.6641 373.328 11.7344 373.969 11.875C374.609 12 375.242 12.2031 375.867 12.4844C376.508 12.7656 377.117 13.1328 377.695 13.5859C378.273 14.0234 378.781 14.5625 379.219 15.2031C379.656 15.8281 380.008 16.5547 380.273 17.3828C380.539 18.2109 380.672 19.1484 380.672 20.1953V28.4453ZM413.133 20.0547C413.133 20.8984 412.984 21.8125 412.688 22.7969C412.391 23.7656 411.906 24.6719 411.234 25.5156C410.578 26.3438 409.711 27.0391 408.633 27.6016C407.57 28.1641 406.273 28.4453 404.742 28.4453H393.75V22.6562H404.742C405.57 22.6562 406.211 22.4062 406.664 21.9062C407.117 21.3906 407.344 20.7578 407.344 20.0078C407.344 19.2109 407.086 18.5859 406.57 18.1328C406.07 17.6797 405.461 17.4531 404.742 17.4531H393.75C392.922 17.4531 392.281 17.7109 391.828 18.2266C391.375 18.7266 391.148 19.3516 391.148 20.1016V28.6094C391.148 29.4219 391.398 30.0547 391.898 30.5078C392.414 30.9609 393.047 31.1875 393.797 31.1875H404.742V37H393.75C392.906 37 391.992 36.8516 391.008 36.5547C390.039 36.2578 389.133 35.7812 388.289 35.125C387.461 34.4531 386.766 33.5859 386.203 32.5234C385.641 31.4453 385.359 30.1406 385.359 28.6094V20.0547C385.359 19.2109 385.508 18.3047 385.805 17.3359C386.102 16.3516 386.578 15.4453 387.234 14.6172C387.906 13.7734 388.773 13.0703 389.836 12.5078C390.914 11.9453 392.219 11.6641 393.75 11.6641H404.742C405.586 11.6641 406.492 11.8125 407.461 12.1094C408.445 12.4062 409.352 12.8906 410.18 13.5625C411.023 14.2188 411.727 15.0859 412.289 16.1641C412.852 17.2266 413.133 18.5234 413.133 20.0547Z" fill="white"/>
</svg>
